HIERARCHY
ROOT Hips
{
	OFFSET -0.001795 -0.223333 0.028219
	CHANNELS 6 Xposition Yposition Zposition Zrotation Yrotation Xrotation 
	JOINT LeftUpLeg
	{
		OFFSET 0.069520 -0.091406 -0.006815
		CHANNELS 3 Zrotation Yrotation Xrotation
		JOINT LeftLeg
		{
			OFFSET 0.034277 -0.375199 -0.004496
			CHANNELS 3 Zrotation Yrotation Xrotation
			JOINT LeftFoot
			{
				OFFSET -0.013596 -0.397961 -0.043693
				CHANNELS 3 Zrotation Yrotation Xrotation
				JOINT LeftToe
				{
					OFFSET 0.026358 -0.055791 0.119288
					CHANNELS 3 Zrotation Yrotation Xrotation
					End Site
					{
						OFFSET 0.000000 0.000000 0.000000
					}
				}
			}
		}
	}
	JOINT RightUpLeg
	{
		OFFSET -0.067670 -0.090522 -0.004320
		CHANNELS 3 Zrotation Yrotation Xrotation
		JOINT RightLeg
		{
			OFFSET -0.038290 -0.382569 -0.008850
			CHANNELS 3 Zrotation Yrotation Xrotation
			JOINT RightFoot
			{
				OFFSET 0.015774 -0.398415 -0.042312
				CHANNELS 3 Zrotation Yrotation Xrotation
				JOINT RightToe
				{
					OFFSET -0.025372 -0.048144 0.123348
					CHANNELS 3 Zrotation Yrotation Xrotation
					End Site
					{
						OFFSET 0.000000 0.000000 0.000000
					}
				}
			}
		}
	}
	JOINT Spine
	{
		OFFSET -0.002533 0.108963 -0.026696
		CHANNELS 3 Zrotation Yrotation Xrotation
		JOINT Spine1
		{
			OFFSET 0.005487 0.135180 0.001092
			CHANNELS 3 Zrotation Yrotation Xrotation
			JOINT Spine2
			{
				OFFSET 0.001457 0.052922 0.025425
				CHANNELS 3 Zrotation Yrotation Xrotation
				JOINT Neck
				{
					OFFSET -0.002778 0.213870 -0.042857
					CHANNELS 3 Zrotation Yrotation Xrotation
					JOINT Head
					{
						OFFSET 0.005152 0.064970 0.051349
						CHANNELS 3 Zrotation Yrotation Xrotation
						End Site
						{
							OFFSET 0.000000 0.000000 0.000000
						}
					}
				}
				JOINT LeftShoulder
				{
					OFFSET 0.078845 0.121749 -0.034090
					CHANNELS 3 Zrotation Yrotation Xrotation
					JOINT LeftArm
					{
						OFFSET 0.090977 0.030469 -0.008868
						CHANNELS 3 Zrotation Yrotation Xrotation
						JOINT LeftForeArm
						{
							OFFSET 0.259612 -0.012772 -0.027456
							CHANNELS 3 Zrotation Yrotation Xrotation
							JOINT LeftHand
							{
								OFFSET 0.249234 0.008986 -0.001171
								CHANNELS 3 Zrotation Yrotation Xrotation
								End Site
								{
									OFFSET 0.000000 0.000000 0.000000
								}
							}
						}
					}
				}
				JOINT RightShoulder
				{
					OFFSET -0.081759 0.118833 -0.038615
					CHANNELS 3 Zrotation Yrotation Xrotation
					JOINT RightArm
					{
						OFFSET -0.096012 0.032551 -0.009143
						CHANNELS 3 Zrotation Yrotation Xrotation
						JOINT RightForeArm
						{
							OFFSET -0.253742 -0.013329 -0.021401
							CHANNELS 3 Zrotation Yrotation Xrotation
							JOINT RightHand
							{
								OFFSET -0.255298 0.007772 -0.005559
								CHANNELS 3 Zrotation Yrotation Xrotation
								End Site
								{
									OFFSET 0.000000 0.000000 0.000000
								}
							}
						}
					}
				}
			}
		}
	}
}
MOTION
Frames: 13
Frame Time: 0.050000
0.000000 0.737670 0.000000 -1.989547 8.038722 -6.599644 31.266385 3.665166 -30.654855 -19.298810 7.142067 48.755821 9.268763 18.591140 -6.770884 0.000000 0.000000 0.000000 -23.492785 -2.493437 -16.063012 10.396136 -7.400064 58.433027 -5.953450 -10.062499 -22.452772 0.000000 0.000000 0.000000 -5.042214 -0.221861 16.695732 7.715539 -0.839900 -28.650492 -3.572327 -7.938278 24.301825 -6.106092 4.873771 -16.917030 0.000000 0.000000 0.000000 -18.052022 -3.675720 1.654870 -27.923022 -44.574770 4.371170 141.271927 -55.775324 -103.379585 0.000000 0.000000 0.000000 10.446963 5.164803 1.497711 54.897704 6.842309 -4.772451 149.757117 71.699329 146.145973 0.000000 0.000000 0.000000 
0.002037 0.749132 0.004955 -2.148197 10.417072 -5.198037 30.769644 3.049436 -31.167130 -19.745030 6.536387 45.612026 8.907078 17.912521 -5.852421 0.000000 0.000000 0.000000 -23.204449 -2.880067 -17.498180 9.936133 -8.318200 60.218602 -5.065227 -9.486377 -14.083434 0.000000 0.000000 0.000000 -4.624538 -0.299704 16.139684 5.014744 -0.100719 -30.887692 -2.338268 -13.699279 26.783788 -9.025925 6.275693 -17.689654 0.000000 0.000000 0.000000 -16.269496 -5.422370 3.502541 -22.366188 -48.438137 3.299286 130.365062 -49.857632 -79.765707 0.000000 0.000000 0.000000 8.120468 4.414368 0.857546 55.405471 2.198508 -7.411972 141.605553 65.085361 127.113597 0.000000 0.000000 0.000000 
0.009974 0.765554 0.009819 -2.591960 10.533704 -5.392095 30.235270 2.801491 -30.163309 -19.335193 6.146988 44.565272 8.211344 17.069086 -0.788791 0.000000 0.000000 0.000000 -20.806679 -1.988663 -14.010503 9.234350 -7.138173 55.066029 -6.360674 -14.609497 -14.440270 0.000000 0.000000 0.000000 -6.436823 -0.084732 15.491035 10.637700 -1.544287 -27.853666 -5.610513 -12.581634 25.573942 -9.065179 6.216592 -21.545908 0.000000 0.000000 0.000000 -13.184185 -5.626664 3.041654 -17.946861 -50.992545 2.466050 124.708332 -48.000769 -72.102200 0.000000 0.000000 0.000000 11.751395 3.272288 0.144948 53.242015 2.050852 -6.870893 140.933283 66.135167 127.490794 0.000000 0.000000 0.000000 
0.024516 0.784301 0.016594 -3.151966 11.326266 -3.703347 30.554902 2.646005 -30.329524 -21.100019 6.602183 41.658535 7.647800 16.747385 3.948806 0.000000 0.000000 0.000000 -20.334934 -1.852384 -13.515662 9.919983 -7.338511 51.384842 -6.719466 -16.440427 -8.176212 0.000000 0.000000 0.000000 -6.667531 -0.036059 14.398772 10.807565 -1.484481 -28.767563 -5.537761 -15.563995 25.154312 -10.288315 6.442084 -23.462128 0.000000 0.000000 0.000000 -10.194650 -3.930698 2.309386 -19.347623 -51.337654 3.386335 118.561620 -47.965057 -64.302537 0.000000 0.000000 0.000000 7.728733 1.864184 -0.354616 55.950235 1.284845 -7.687567 136.280118 63.818173 116.965065 0.000000 0.000000 0.000000 
0.047391 0.805650 0.025725 -3.880329 11.755655 -2.911283 28.438356 2.074464 -29.675916 -20.039520 5.921826 41.150292 7.988097 17.410556 4.239033 0.000000 0.000000 0.000000 -19.105988 -1.329785 -10.097473 9.841464 -6.320829 44.404954 -7.725951 -19.389271 -3.435685 0.000000 0.000000 0.000000 -7.259268 0.037431 13.454366 11.406243 -1.662979 -28.252838 -4.808222 -16.486165 24.999614 -10.029938 6.177844 -23.157564 0.000000 0.000000 0.000000 -8.882226 -4.226505 2.394211 -17.033014 -51.424008 2.675308 114.123855 -49.979041 -62.413601 0.000000 0.000000 0.000000 8.410563 0.848600 -0.967817 55.052048 0.453848 -7.868997 136.554929 63.169349 115.966901 0.000000 0.000000 0.000000 
0.079552 0.829085 0.036602 -3.999920 11.035804 -2.620177 25.682884 1.600517 -28.013812 -20.770705 6.311616 41.022125 10.424886 21.623412 5.949461 0.000000 0.000000 0.000000 -19.068608 -1.097490 -8.290934 9.001496 -5.023477 40.225669 -8.696814 -20.790369 6.337636 0.000000 0.000000 0.000000 -7.460242 0.077752 12.809325 11.327405 -1.528904 -29.539537 -4.524036 -16.584970 27.591955 -12.020935 7.104322 -26.311388 0.000000 0.000000 0.000000 -7.466389 -3.633772 2.100395 -21.478658 -50.857805 4.161470 112.109425 -52.844640 -62.746509 0.000000 0.000000 0.000000 6.702395 -0.288483 -1.201626 55.258039 1.452305 -7.829477 135.406255 62.281390 113.334041 0.000000 0.000000 0.000000 
0.118066 0.852689 0.047510 -4.394457 10.326468 -1.930224 22.020522 0.953183 -25.805793 -20.684665 6.266511 40.344716 12.627268 25.211424 3.317905 0.000000 0.000000 0.000000 -18.562601 -1.108858 -10.365577 9.112721 -5.033462 40.838389 -11.133095 -24.049133 16.299032 0.000000 0.000000 0.000000 -6.087619 -0.022448 12.376594 10.332978 -1.248511 -30.083890 -4.680367 -17.139034 28.532889 -12.627865 7.351219 -26.278748 0.000000 0.000000 0.000000 -9.090755 -3.214443 2.251360 -26.092535 -48.342367 4.956824 117.764715 -57.400113 -72.358093 0.000000 0.000000 0.000000 5.779340 -1.393154 -1.569768 55.501044 2.383900 -7.683057 134.066341 58.798730 107.010893 0.000000 0.000000 0.000000 
0.158186 0.868798 0.057410 -4.342426 10.359517 -0.733040 17.283102 0.127879 -23.221874 -19.988641 5.707462 38.774508 13.759552 27.531658 -3.574871 0.000000 0.000000 0.000000 -14.618925 -0.822153 -15.349818 8.079975 -5.051670 44.506343 -16.411338 -31.596876 18.976460 0.000000 0.000000 0.000000 -4.325800 -0.143102 11.167170 8.260705 -0.844432 -29.099826 -4.911582 -17.924708 27.718280 -14.538124 8.263504 -27.714878 0.000000 0.000000 0.000000 -13.074767 -3.393656 2.923191 -30.879822 -46.548146 5.745397 127.483531 -64.664710 -90.756502 0.000000 0.000000 0.000000 7.417609 -0.393900 -1.549235 55.175620 4.082783 -6.710424 137.767638 57.710616 110.458787 0.000000 0.000000 0.000000 
0.195774 0.876060 0.066437 -4.343056 13.095219 -1.138590 13.524006 -0.552277 -21.045077 -18.884891 4.468919 37.387122 13.644657 27.073498 -6.508464 0.000000 0.000000 0.000000 -11.298698 -0.611329 -19.205200 6.335786 -5.505454 49.510700 -10.302891 -23.939583 5.192126 0.000000 0.000000 0.000000 -3.224852 -0.362502 13.115526 6.502306 -0.379186 -30.391417 -5.977577 -17.988953 28.506399 -13.288453 7.867159 -26.644832 0.000000 0.000000 0.000000 -14.007569 -5.041651 3.591485 -37.320039 -45.182828 7.196452 143.997224 -68.484589 -114.722185 0.000000 0.000000 0.000000 10.034921 -0.089646 -1.664237 54.809671 5.957490 -5.733110 141.945258 57.896353 118.616297 0.000000 0.000000 0.000000 
0.229288 0.879119 0.075113 -5.540163 18.682616 -2.703361 10.608834 -1.027620 -18.425443 -18.796473 3.096916 34.787810 16.373547 31.489936 -7.991262 0.000000 0.000000 0.000000 -7.263858 -0.230154 -21.239880 1.694353 -5.015123 53.730892 -3.643373 -8.032887 -6.579326 0.000000 0.000000 0.000000 -2.593094 -0.733775 15.964475 5.690307 -0.184725 -30.505299 -6.260447 -19.296706 28.075076 -12.980667 7.900125 -27.367928 0.000000 0.000000 0.000000 -14.263801 -6.218884 3.733858 -44.178782 -45.506254 9.716406 168.906464 -69.873865 -149.779469 0.000000 0.000000 0.000000 11.201280 -0.663410 -1.757853 54.379554 8.857352 -4.264458 146.328721 57.067377 126.477687 0.000000 0.000000 0.000000 
0.260997 0.874919 0.085177 -6.191642 26.051056 -3.495075 7.129420 -1.544212 -18.121774 -16.527849 0.831901 37.537017 15.398417 28.020317 -13.104949 0.000000 0.000000 0.000000 -3.132793 0.107552 -24.729262 -1.586778 -5.861572 56.288788 -0.557634 4.313320 -15.052473 0.000000 0.000000 0.000000 -3.205878 -0.916081 16.978681 5.172337 0.036164 -27.887241 -6.189009 -21.153814 26.145343 -12.739972 8.049023 -27.545301 0.000000 0.000000 0.000000 -13.793087 -5.592359 2.769964 -49.909759 -45.204294 11.810616 -176.961387 -69.778980 -171.354508 0.000000 0.000000 0.000000 11.841133 1.606301 -0.340867 53.611129 10.532888 -3.242513 148.937705 59.771900 135.255164 0.000000 0.000000 0.000000 
0.294716 0.871486 0.098621 -7.301253 37.243171 -4.501643 4.042851 -1.613779 -15.513306 -13.300291 -1.800983 34.740578 15.722055 23.214422 -17.709029 0.000000 0.000000 0.000000 -2.015906 -0.739138 -26.805204 -2.078251 -9.813234 56.614986 1.324123 11.643256 -18.340656 0.000000 0.000000 0.000000 -4.563449 -1.511947 20.204523 2.903885 0.568944 -29.266743 -3.800468 -25.173235 26.730576 -12.999218 8.466863 -29.370494 0.000000 0.000000 0.000000 -12.619067 -5.713397 2.194599 -57.883272 -46.743286 15.575070 -169.853173 -66.279778 177.082685 0.000000 0.000000 0.000000 8.580702 -0.165103 -0.339032 57.040861 15.159854 -1.370440 145.944299 63.737815 137.822832 0.000000 0.000000 0.000000 
0.333915 0.866635 0.118199 -9.832958 46.838253 -5.729837 4.105851 -1.510912 -14.043832 -15.373292 -2.940233 36.275133 17.002957 21.252155 -21.774908 0.000000 0.000000 0.000000 1.463622 -1.132458 -30.167045 -2.997119 -11.128603 53.473897 0.015862 1.621450 -11.738137 0.000000 0.000000 0.000000 -2.777330 -1.987697 19.591382 1.520038 1.265538 -25.524490 -2.194322 -24.660380 22.184639 -12.962997 9.469322 -25.998983 0.000000 0.000000 0.000000 -13.523979 -9.040669 2.369752 -59.154861 -42.836456 13.544181 -161.230308 -64.885213 158.520253 0.000000 0.000000 0.000000 6.010076 -1.119647 -0.118564 57.123107 12.886925 -1.697202 137.850649 65.126751 132.077250 0.000000 0.000000 0.000000 
